<svg xmlns="http://www.w3.org/2000/svg">
    <symbol id="burger" viewBox="0 0 28 28" fill="none">
        <g clip-path="url(#a)">
            <path d="M3.5 21h21v-2.333h-21V21Zm0-5.833h21v-2.334h-21v2.334ZM3.5 7v2.333h21V7h-21Z" fill="#000"/>
        </g>
        <defs>
            <clipPath id="a">
            <path fill="#fff" d="M0 0h28v28H0z"/>
            </clipPath>
        </defs>
    </symbol>
    <symbol id="close" viewBox="0 0 20 21" fill="none">
        <g clip-path="url(#a)">
            <path d="m15.833 5.842-1.175-1.175L10 9.325 5.342 4.667 4.167 5.842 8.825 10.5l-4.658 4.658 1.175 1.175L10 11.675l4.658 4.658 1.175-1.175-4.658-4.658 4.658-4.658Z" fill="#606060"/>
        </g>
        <defs>
            <clipPath id="a">
            <path fill="#fff" transform="translate(0 .5)" d="M0 0h20v20H0z"/>
            </clipPath>
        </defs>
    </symbol>
    <symbol id="plus" viewBox="0 0 25 24" fill="none">
        <path d="M12.5 5v14M5.5 12h14" stroke="currentColor" stroke-width="2" stroke-linecap="round" stroke-linejoin="round"/>
    </symbol>
</svg>